<?xml version="1.0" encoding="UTF-8" standalone="no"?>
<!DOCTYPE svg PUBLIC "-//W3C//DTD SVG 1.1//EN" "http://www.w3.org/Graphics/SVG/1.1/DTD/svg11.dtd">
<svg width="100%" height="100%" viewBox="0 0 512 512" version="1.1" xmlns="http://www.w3.org/2000/svg" xmlns:xlink="http://www.w3.org/1999/xlink" xml:space="preserve" xmlns:serif="http://www.serif.com/" style="fill-rule:evenodd;clip-rule:evenodd;stroke-linejoin:round;stroke-miterlimit:2;">
    <rect x="-66.563" y="-73.545" width="711.246" height="709.164" style="fill:rgb(235,235,235);"/>
    <g transform="matrix(1,0,0,1,-70.4031,17.1376)">
        <path d="M328.659,327.59L277.277,327.59L297.579,223.573L296.827,223.573L255.471,327.59L221.885,327.59L218.376,223.573L217.373,223.573L201.583,327.59L154.462,327.59L185.291,150.135L247.451,150.135L252.714,245.88L253.717,245.88L290.561,150.135L359.488,150.135L328.659,327.59Z" style="fill-rule:nonzero;"/>
        <path d="M498.344,200.514C498.344,212.044 496.59,222.153 493.081,230.842C489.572,239.531 484.768,246.841 478.669,252.773C472.57,258.705 465.259,263.175 456.738,266.182C448.216,269.19 438.942,270.694 428.916,270.694L416.384,270.694L406.358,327.59L355.227,327.59L386.056,150.135L444.957,150.135C451.14,150.135 457.406,151.012 463.756,152.766C470.105,154.521 475.828,157.362 480.925,161.288C486.021,165.215 490.198,170.395 493.457,176.828C496.715,183.261 498.344,191.157 498.344,200.514ZM449.218,208.284C449.218,203.438 447.965,199.887 445.459,197.632C442.952,195.376 440.112,194.248 436.937,194.248L429.417,194.248L423.653,228.586L430.921,228.586C436.101,228.586 440.446,226.706 443.955,222.947C447.464,219.187 449.218,214.299 449.218,208.284Z" style="fill-rule:nonzero;"/>
    </g>
</svg>
